<svg xmlns="http://www.w3.org/2000/svg" viewBox="0 0 900 420" font-family="-apple-system, BlinkMacSystemFont, sans-serif" font-size="12">
  <rect width="900" height="420" fill="#ffffff"/>
  <text x="450" y="26" text-anchor="middle" font-size="17" font-weight="600" fill="#111827">Asymmetric-risk metrics</text>
  <line x1="80" y1="340" x2="870" y2="340" stroke="#e5e7eb"/>
  <text x="72" y="344" text-anchor="end" fill="#6b7280">0.00</text>
  <line x1="80" y1="280" x2="870" y2="280" stroke="#e5e7eb"/>
  <text x="72" y="284" text-anchor="end" fill="#6b7280">20</text>
  <line x1="80" y1="220" x2="870" y2="220" stroke="#e5e7eb"/>
  <text x="72" y="224" text-anchor="end" fill="#6b7280">40</text>
  <line x1="80" y1="160" x2="870" y2="160" stroke="#e5e7eb"/>
  <text x="72" y="164" text-anchor="end" fill="#6b7280">60</text>
  <line x1="80" y1="100.00000000000001" x2="870" y2="100.00000000000001" stroke="#e5e7eb"/>
  <text x="72" y="104.00000000000001" text-anchor="end" fill="#6b7280">80</text>
  <text x="25" y="205" transform="rotate(-90 25 205)" text-anchor="middle" fill="#374151">Improvement vs unhedged (%)</text>
  <rect x="105.71888888888888" y="273.10475237603396" width="62.673333333333325" height="66.89524762396604" fill="#a7f3d0" rx="2"/>
  <text x="137.05555555555554" y="267.10475237603396" text-anchor="middle" fill="#111827" font-weight="500">22%</text>
  <rect x="180.32999999999998" y="244.25566884373143" width="62.673333333333325" height="95.74433115626857" fill="#34d399" rx="2"/>
  <text x="211.66666666666663" y="238.25566884373143" text-anchor="middle" fill="#111827" font-weight="500">32%</text>
  <rect x="254.9411111111111" y="216.17585883519078" width="62.673333333333325" height="123.82414116480922" fill="#047857" rx="2"/>
  <text x="286.27777777777777" y="210.17585883519078" text-anchor="middle" fill="#111827" font-weight="500">41%</text>
  <text x="211.66666666666666" y="362" text-anchor="middle" font-weight="500" fill="#111827"><tspan x="211.66666666666666" dy="0">Volatility</tspan><tspan x="211.66666666666666" dy="14">reduction (all fees)</tspan></text>
  <rect x="369.0522222222222" y="295.1930314665607" width="62.673333333333325" height="44.80696853343932" fill="#a7f3d0" rx="2"/>
  <text x="400.38888888888886" y="289.1930314665607" text-anchor="middle" fill="#111827" font-weight="500">15%</text>
  <rect x="443.6633333333333" y="211.47008873212107" width="62.673333333333325" height="128.52991126787893" fill="#34d399" rx="2"/>
  <text x="474.99999999999994" y="205.47008873212107" text-anchor="middle" fill="#111827" font-weight="500">43%</text>
  <rect x="518.2744444444444" y="160.1083316352637" width="62.673333333333325" height="179.8916683647363" fill="#047857" rx="2"/>
  <text x="549.6111111111111" y="154.1083316352637" text-anchor="middle" fill="#111827" font-weight="500">60%</text>
  <text x="475" y="362" text-anchor="middle" font-weight="500" fill="#111827"><tspan x="475" dy="0">Max drawdown</tspan><tspan x="475" dy="14">reduction (high fee)</tspan></text>
  <rect x="632.3855555555555" y="307.9031775238407" width="62.673333333333325" height="32.096822476159275" fill="#a7f3d0" rx="2"/>
  <text x="663.7222222222222" y="301.9031775238407" text-anchor="middle" fill="#111827" font-weight="500">11%</text>
  <rect x="706.9966666666666" y="281.27480543600484" width="62.673333333333325" height="58.72519456399516" fill="#34d399" rx="2"/>
  <text x="738.3333333333333" y="275.27480543600484" text-anchor="middle" fill="#111827" font-weight="500">20%</text>
  <rect x="781.6077777777776" y="253.22803618970863" width="62.673333333333325" height="86.77196381029137" fill="#047857" rx="2"/>
  <text x="812.9444444444443" y="247.22803618970863" text-anchor="middle" fill="#111827" font-weight="500">29%</text>
  <text x="738.3333333333333" y="362" text-anchor="middle" font-weight="500" fill="#111827"><tspan x="738.3333333333333" dy="0">CVaR(5%) tail-loss</tspan><tspan x="738.3333333333333" dy="14">reduction (high fee)</tspan></text>
  <rect x="180" y="380" width="14" height="14" fill="#a7f3d0" rx="2"/>
  <text x="200" y="391" fill="#111827">±5% range</text>
  <rect x="360" y="380" width="14" height="14" fill="#34d399" rx="2"/>
  <text x="380" y="391" fill="#111827">±7.5% range</text>
  <rect x="540" y="380" width="14" height="14" fill="#047857" rx="2"/>
  <text x="560" y="391" fill="#111827">±10% range</text>
</svg>
